<svg id="Layer_1" data-name="Layer 1" xmlns="http://www.w3.org/2000/svg" viewBox="0 0 189.17 176.75"><defs><style>.cls-1{font-size:29.24px;font-family:Handy Sans Condensed;letter-spacing:2.26px;}.cls-1,.cls-4{fill:#fff;}.cls-2{letter-spacing:3.4px;}.cls-3{letter-spacing:1.13px;}.cls-4{fill-rule:evenodd;}</style></defs><title>happyholidays</title><text class="cls-1" transform="matrix(0.88, -0.08, 0.03, 1, 54.46, 94.22)">H<tspan class="cls-2" x="18.66" y="0">AP</tspan><tspan x="53.37" y="0">PY</tspan><tspan x="-11.74" y="28.27">HO</tspan><tspan x="23.73" y="28.27">LID</tspan><tspan class="cls-3" x="66.13" y="28.27">A</tspan><tspan x="82.03" y="28.27">Y</tspan><tspan class="cls-2" x="97.45" y="28.27">S</tspan></text><path class="cls-4" d="M260.18,210.87a0.08,0.08,0,0,1,.17,0l0.09,8.26a1.09,1.09,0,0,1-1.55.56h0a0.67,0.67,0,0,1-.24-0.61Z" transform="translate(-152.19 -162.89)"/><path class="cls-4" d="M335.54,256.3c0.32,0,.19.21-0.15,0.26l-27.06,3.81c-1.82.22-2.34-1.26-.91-2.07h0a5.38,5.38,0,0,1,2.14-.63Z" transform="translate(-152.19 -162.89)"/><path class="cls-4" d="M219.63,202.67c-0.11-.22.11-0.22,0.25,0l11.55,18.14c0.75,1.24-.25,2.2-1.34,1.49h0a3.75,3.75,0,0,1-1.17-1.3Z" transform="translate(-152.19 -162.89)"/><path class="cls-4" d="M261.41,312.68c0,0.25-.17.18-0.23-0.08l-5.38-20.82c-0.33-1.41.92-2,1.74-1h0a3.75,3.75,0,0,1,.71,1.6Z" transform="translate(-152.19 -162.89)"/><path class="cls-4" d="M152.34,272.35c-0.29,0-.13.81,0.16,0.8,12.25-.37,25.11-2.27,36.45-3.43a0.93,0.93,0,0,0,.44-0.18A1.05,1.05,0,0,0,189,268a8.56,8.56,0,0,0-1.92.22c-2.7.19-5.44,0.42-8.2,0.72C172,269.73,158.73,271.31,152.34,272.35Z" transform="translate(-152.19 -162.89)"/><path class="cls-4" d="M235.08,163.16a0.36,0.36,0,0,0-.7.11c2.39,17.9,6.28,36.91,9.24,53.61a2.35,2.35,0,0,0,.23.67,0.71,0.71,0,0,0,1.32-.34,21.6,21.6,0,0,0-.52-2.83c-0.63-4-1.29-8-2-12.06C240.76,192.2,237.1,172.62,235.08,163.16Z" transform="translate(-152.19 -162.89)"/><path class="cls-4" d="M166.76,232c-0.28-.05-0.39.54-0.12,0.62,11.46,3.39,24,5.86,34.87,8.42a1.15,1.15,0,0,0,.46,0,0.7,0.7,0,0,0,.14-1.2,10.63,10.63,0,0,0-1.85-.41c-2.56-.67-5.17-1.32-7.83-1.93C185.82,236,173,233.16,166.76,232Z" transform="translate(-152.19 -162.89)"/><path class="cls-4" d="M341,290.58c0.26,0.11.49-.44,0.24-0.58-10.51-5.68-22.26-10.69-32.38-15.44a1.15,1.15,0,0,0-.45-0.1,0.7,0.7,0,0,0-.38,1.15,10.63,10.63,0,0,0,1.73.79c2.37,1.19,4.78,2.36,7.26,3.51C323.18,282.74,335.13,288.15,341,290.58Z" transform="translate(-152.19 -162.89)"/><path class="cls-4" d="M180.35,206.29c-0.21-.16-0.62.43-0.43,0.61,7.91,7.79,17.2,15,25.06,21.71a0.83,0.83,0,0,0,.39.18,1,1,0,0,0,.75-1.22,7.67,7.67,0,0,0-1.35-1.12c-1.82-1.65-3.68-3.3-5.61-4.92C194.38,217.51,185,209.81,180.35,206.29Z" transform="translate(-152.19 -162.89)"/><path class="cls-4" d="M327.1,236.76c0.3,0,.41.54,0.11,0.61-12.48,3.24-26.09,5.57-37.93,8a1.36,1.36,0,0,1-.5,0,0.67,0.67,0,0,1-.12-1.19,12.51,12.51,0,0,1,2-.39c2.79-.64,5.62-1.26,8.52-1.83C306.37,240.52,320.3,237.84,327.1,236.76Z" transform="translate(-152.19 -162.89)"/><path class="cls-4" d="M283.76,184.33c0.13-.25.66,0,0.56,0.28-4.27,11.16-9.91,22.61-14.48,32.81a1.15,1.15,0,0,1-.28.37,0.7,0.7,0,0,1-1-.62,10.63,10.63,0,0,1,.79-1.72c1-2.44,2.09-4.91,3.22-7.39C275.36,201.91,280.89,190,283.76,184.33Z" transform="translate(-152.19 -162.89)"/><path class="cls-4" d="M314.23,199.42c0.25-.18.65,0.39,0.43,0.6-9.45,8.68-20.41,16.87-29.73,24.42a1.14,1.14,0,0,1-.45.21,0.86,0.86,0,0,1-.74-1.2,10.47,10.47,0,0,1,1.59-1.26c2.16-1.85,4.37-3.7,6.66-5.53C297.66,212.13,308.71,203.44,314.23,199.42Z" transform="translate(-152.19 -162.89)"/><path class="cls-4" d="M208.87,336.87a0.32,0.32,0,0,1-.58-0.25c5.11-13.44,11.68-27.4,17.06-39.78a1.68,1.68,0,0,1,.31-0.47,0.64,0.64,0,0,1,1.06.58,15.47,15.47,0,0,1-.93,2.09c-1.21,3-2.47,5.94-3.8,9C218.69,315.48,212.21,329.94,208.87,336.87Z" transform="translate(-152.19 -162.89)"/><path class="cls-4" d="M300.58,339.16a0.33,0.33,0,0,1-.59.3C291.86,324,284.23,306.83,277.18,292a2.38,2.38,0,0,1-.19-0.66,0.64,0.64,0,0,1,1.17-.45,21.92,21.92,0,0,1,1.18,2.53c1.73,3.48,3.46,7,5.17,10.65C288.73,313.08,296.85,330.57,300.58,339.16Z" transform="translate(-152.19 -162.89)"/><path class="cls-4" d="M194.65,293.31a25.42,25.42,0,0,0-3.67,5.07c-0.13.23-.08,0.49,0.08,0.38a43.49,43.49,0,0,0,5.7-4.89c0.55-.69.42-1.46-0.16-1.52A2.53,2.53,0,0,0,194.65,293.31Z" transform="translate(-152.19 -162.89)"/><path class="cls-4" d="M238.83,296a55.67,55.67,0,0,0,.15,9.21c0,0.39.23,0.69,0.29,0.44a82.71,82.71,0,0,0,1.55-10.41c0-1.29-.54-2.2-1-1.88S238.94,294.79,238.83,296Z" transform="translate(-152.19 -162.89)"/><path class="cls-4" d="M200.17,248.14a25.42,25.42,0,0,0-6.15,1.12c-0.25.08-.39,0.3-0.2,0.33a43.49,43.49,0,0,0,7.5.41c0.87-.12,1.31-0.76.94-1.2A2.53,2.53,0,0,0,200.17,248.14Z" transform="translate(-152.19 -162.89)"/><path class="cls-4" d="M287.2,235.18a25.42,25.42,0,0,0,5.45-3.08c0.21-.16.27-0.41,0.08-0.38a43.49,43.49,0,0,0-7.22,2.07c-0.78.4-1,1.15-.49,1.44A2.53,2.53,0,0,0,287.2,235.18Z" transform="translate(-152.19 -162.89)"/><path class="cls-4" d="M301.09,290.82a14.5,14.5,0,0,0,5.18,2.8,0.25,0.25,0,0,0,.29-0.37,39.64,39.64,0,0,0-5.62-6.19c-0.72-.46-1.31.21-1.19,1.19A3.92,3.92,0,0,0,301.09,290.82Z" transform="translate(-152.19 -162.89)"/><text x="-152.19" y="-162.89"/><text x="-152.19" y="-162.89"/></svg>