<?xml version="1.0" encoding="utf-8"?>
<!-- Generator: Adobe Illustrator 21.0.0, SVG Export Plug-In . SVG Version: 6.00 Build 0)  -->
<svg version="1.1" id="Layer_1" xmlns="http://www.w3.org/2000/svg" xmlns:xlink="http://www.w3.org/1999/xlink" x="0px" y="0px"
	 viewBox="0 0 1224 792" style="enable-background:new 0 0 1224 792;" xml:space="preserve">
<style type="text/css">
	.st0{fill:#FFFFFF;}
</style>
<g>
	<g>
		<g>
			<path class="st0" d="M259.7,435.1c-0.8,0-5.2,0-5.2,0s-0.4,0-0.4,0.4c0,0.4,0,2.5,0,2.5s0,0.4,0.4,0.4c0.4,0,2.3,0,2.3,0
				s0.3,0,0.3,0.3c0,0.3,0,8.2,0,8.2s0,0.3,0.3,0.3c0.3,0,2.9,0,2.9,0s0.2,0,0.3-0.3c0-0.3,0-11,0-11S260.5,435.1,259.7,435.1z"/>
			<path class="st0" d="M268.1,435.1c0,0-2.6,0-2.9,0c-0.3,0-0.3,0.3-0.3,0.3s0,7.9,0,8.2c0,0.3-0.3,0.3-0.3,0.3s-1.9,0-2.3,0
				c-0.4,0-0.4,0.4-0.4,0.4s0,2.1,0,2.5c0,0.4,0.4,0.4,0.4,0.4s4.4,0,5.2,0c0.8,0,0.8-0.8,0.8-0.8s0-10.7,0-11
				C268.4,435.1,268.1,435.1,268.1,435.1z"/>
			<path class="st0" d="M272.5,429.6c-3.1-2.7-6.6-4-10.5-4.1c-4.4,0-8.2,1.5-11.3,4.5c-3.1,3-4.7,6.7-4.7,11.1
				c0,4.3,1.5,8,4.6,11.1c3,3.1,6.8,4.6,11.1,4.6c4.3,0,8.1-1.5,11.2-4.5c3.1-3,4.7-6.7,4.7-11C277.6,436.5,275.9,432.6,272.5,429.6
				z M271,450.3c-2.6,2.5-5.6,3.7-9.2,3.7c-3.6,0-6.5-1.3-9.1-3.8c-2.6-2.5-3.8-5.5-3.8-9.1c0-3.6,1.3-6.5,3.8-9
				c2.6-2.5,5.6-3.7,9.3-3.7c3.2,0,6,1.1,8.6,3.4c2.8,2.5,4.2,5.6,4.2,9.6C274.8,444.8,273.5,447.7,271,450.3z"/>
		</g>
		<g>
			<circle class="st0" cx="537" cy="473.9" r="15.1"/>
			<path class="st0" d="M536,446.3c10.1-2.9,21.8,3.5,24.3,11.5l70.8-140c13.6-27.4-14.7-46.1-14.7-46.1c0.3,15.2-4.2,24.2-4.2,24.2
				L536,446.3z"/>
		</g>
		<path class="st0" d="M346.8,313.8c-7.8-3.1-24.1-7.8-34.3-0.5c10.2,4.2,12.5,13.9,8.9,21.4l-31.8,62.8
			c-13.8,27.5,12.5,45.6,12.5,45.6c13,9,42.6,9.5,62-7.3c6.2,9.3,17.3,15,32.6,15c15.5,0,31.5-10.1,45.6-21.2c0,0,0,0,0.1,0
			c4.1,5.5,9.6,12.8,20.6,16.8c21.2,7.7,50.8-0.5,61.8-21.9l39.6-78.8c13.6-27.5-14.8-46.5-14.8-46.5c0.3,15.2-4.2,24.2-4.2,24.2
			l-7.8,15.5c-1.3-12.3-13.2-22.7-26.8-24c-9.3-0.9-27.1,0.3-38.5,18.5l-31.7,63.5c-2.2,5.7-3.3,12.9-3,17.5
			c0.1,0.8,0.1,1.7,0.2,2.5c-7.2,6.2-10.6,8.3-14.2,10.4c-17.6,10.1-35.9,10.6-38.3-3.5c15-11.3,45.9-42.4,55.5-58.6
			c15.4-26.2,9.4-40.6-2-48.5c-9.9-6.8-38-5.6-50.1,24.9l-26,51.5c-5.3,10.7-5.4,23.7-3.1,30.1c-14.7,8.8-21.3,9-26.6,9
			c-31.3,0-16.6-27.4-16.6-27.5c0,0,32.8-66.1,33.4-67.2c27.8,0.3,32.7-27.6,32.7-27.6C374.3,313.7,362.7,319.1,346.8,313.8z
			 M415.3,348c0,0,4.6-10.4,10.9-10c5.5,0.4,6.4,6.8,3.2,15c-7.2,18.3-29.8,40.7-42.3,51C387.9,401.7,415.3,348,415.3,348z
			 M499.4,414.8c-4.6,10.8-14.8,22.5-28,16.3c-13.9-6.5-7.8-20.6,4.1-43.6l19-37.9c2.9-5,6.6-8.2,10.5-9.9c4.5-2,9.7-3.1,14.4-1.3
			c17.4,7.1,3,30.9,3,30.9L499.4,414.8z"/>
	</g>
	<g>
		<g>
			<path class="st0" d="M964.3,325.7c0.8,0,5.2,0,5.2,0s0.4,0,0.4-0.4c0-0.4,0-2.5,0-2.5s0-0.4-0.4-0.4c-0.4,0-2.3,0-2.3,0
				s-0.3,0-0.3-0.3c0-0.3,0-8.2,0-8.2s0-0.3-0.3-0.3c-0.3,0-2.9,0-2.9,0s-0.2,0-0.3,0.3c0,0.3,0,11,0,11S963.5,325.7,964.3,325.7z"
				/>
			<path class="st0" d="M955.9,325.7c0,0,2.6,0,2.9,0s0.3-0.3,0.3-0.3s0-7.9,0-8.2c0-0.3,0.3-0.3,0.3-0.3s1.9,0,2.3,0
				c0.4,0,0.4-0.4,0.4-0.4s0-2.1,0-2.5c0-0.4-0.4-0.4-0.4-0.4s-4.4,0-5.2,0c-0.8,0-0.8,0.8-0.8,0.8s0,10.7,0,11
				C955.6,325.7,955.9,325.7,955.9,325.7z"/>
			<path class="st0" d="M951.5,331.2c3.1,2.7,6.6,4,10.5,4.1c4.4,0,8.2-1.5,11.3-4.5c3.1-3,4.7-6.7,4.7-11.1c0-4.3-1.5-8-4.6-11.1
				c-3-3.1-6.8-4.6-11.1-4.6c-4.3,0-8.1,1.5-11.2,4.5c-3.1,3-4.7,6.7-4.7,11C946.4,324.3,948.1,328.3,951.5,331.2z M953,310.6
				c2.6-2.5,5.6-3.7,9.2-3.7c3.6,0,6.5,1.3,9.1,3.8c2.6,2.5,3.8,5.5,3.8,9.1c0,3.6-1.3,6.5-3.8,9c-2.6,2.5-5.6,3.7-9.3,3.7
				c-3.2,0-6-1.1-8.6-3.4c-2.8-2.5-4.2-5.6-4.2-9.6C949.2,316,950.5,313.1,953,310.6z"/>
		</g>
		<g>
			<circle class="st0" cx="687" cy="286.9" r="15.1"/>
			<path class="st0" d="M688,314.5c-10.1,2.9-21.8-3.5-24.3-11.5l-70.8,140c-13.6,27.4,14.7,46.1,14.7,46.1
				c-0.3-15.2,4.2-24.2,4.2-24.2L688,314.5z"/>
		</g>
		<path class="st0" d="M877.2,447c7.8,3.1,24.1,7.8,34.3,0.5c-10.2-4.2-12.5-13.9-8.9-21.4l31.8-62.8c13.8-27.5-12.5-45.6-12.5-45.6
			c-13-9-42.6-9.5-62,7.3c-6.2-9.3-17.3-15-32.6-15c-15.5,0-31.5,10.1-45.6,21.2c0,0,0,0-0.1,0c-4.1-5.5-9.6-12.8-20.6-16.8
			c-21.2-7.7-50.8,0.5-61.8,21.9L659.8,415c-13.6,27.5,14.8,46.5,14.8,46.5c-0.3-15.2,4.2-24.2,4.2-24.2l7.8-15.5
			c1.3,12.3,13.2,22.7,26.8,24c9.3,0.9,27.1-0.3,38.5-18.5l31.7-63.5c2.2-5.7,3.3-12.9,3-17.5c-0.1-0.8-0.1-1.7-0.2-2.5
			c7.2-6.2,10.6-8.3,14.2-10.4c17.6-10.1,35.9-10.6,38.3,3.5c-15,11.3-45.9,42.4-55.5,58.6c-15.4,26.2-9.4,40.6,2,48.5
			c9.9,6.8,38,5.6,50.1-24.9l26-51.5c5.3-10.7,5.4-23.7,3.1-30.1c14.7-8.8,21.3-9,26.6-9c31.3,0,16.6,27.4,16.6,27.5
			c0,0-32.8,66.1-33.4,67.2c-27.8-0.3-32.7,27.6-32.7,27.6C849.7,447.1,861.3,441.7,877.2,447z M808.7,412.8c0,0-4.6,10.4-10.9,10
			c-5.5-0.4-6.4-6.8-3.2-15c7.2-18.3,29.8-40.7,42.3-51C836.1,359.1,808.7,412.8,808.7,412.8z M724.6,346
			c4.6-10.8,14.8-22.5,28-16.3c13.9,6.5,7.8,20.6-4.1,43.6l-19,37.9c-2.9,5-6.6,8.2-10.5,9.9c-4.5,2-9.7,3.1-14.4,1.3
			c-17.4-7.1-3-30.9-3-30.9L724.6,346z"/>
	</g>
</g>
</svg>
