<svg id="Layer_1" data-name="Layer 1" xmlns="http://www.w3.org/2000/svg" viewBox="0 0 76.67 82.88"><defs><style>.cls-1{fill:#a7a9ac;}</style></defs><title>snowflake</title><path class="cls-1" d="M257.74,185.4l-16.53,4.43-16.15-9.33,16.16-9.33,16.53,4.43a1.75,1.75,0,1,0,.91-3.39l-13.14-3.52,11.28-6.52a1.75,1.75,0,0,0-1.75-3l-11.29,6.52,3.52-13.14a1.76,1.76,0,0,0-3.39-.91l-4.43,16.53-16.16,9.33V159l12.1-12.1a1.75,1.75,0,0,0-2.48-2.48L223.3,154v-13.2a1.75,1.75,0,0,0-3.51,0V154l-9.61-9.62a1.75,1.75,0,0,0-2.48,2.48l12.1,12.1v18.49l-16-9.24-4.43-16.53a1.76,1.76,0,0,0-3.39.91l3.52,13.14-11.43-6.6a1.75,1.75,0,0,0-1.75,3l11.43,6.6L184.6,172.3a1.75,1.75,0,0,0,.45,3.45,1.71,1.71,0,0,0,.45-0.06L202,171.26l16,9.24-16,9.24-16.53-4.43a1.75,1.75,0,1,0-.91,3.39l13.15,3.52-11.43,6.6a1.75,1.75,0,0,0,1.75,3l11.43-6.6L196,208.4a1.76,1.76,0,0,0,3.39.91l4.43-16.53,16-9.24V202.2l-12.1,12.1a1.75,1.75,0,0,0,2.48,2.48l9.62-9.62v13a1.75,1.75,0,1,0,3.51,0v-13l9.62,9.62a1.75,1.75,0,0,0,2.48-2.48l-12.1-12.1V183.54l16.15,9.33,4.43,16.53a1.76,1.76,0,0,0,3.39-.91l-3.52-13.14L255,201.87a1.75,1.75,0,0,0,1.75-3l-11.28-6.52,13.14-3.52A1.75,1.75,0,1,0,257.74,185.4Z" transform="translate(-183.29 -139.06)"/></svg>